<svg width="40" height="40" viewBox="0 0 40 40" fill="none" xmlns="http://www.w3.org/2000/svg">
<path d="M9.91669 6C10.9167 5 10.1667 2 8.47869 2C6.79069 2 6.91669 4 7.91669 4C8.91669 4 8.91669 6 8.91669 7C8.91669 8 9.91669 6 9.91669 6ZM5.73369 7.72C6.73369 6.72 5.98369 3.72 4.29569 3.72C2.60769 3.72 2.73369 5.72 3.73369 5.72C4.73369 5.72 4.73369 7.72 4.73369 8.72C4.73369 9.72 5.73369 7.72 5.73369 7.72Z" fill="#AA8DD8"/>
<path d="M32.1088 34.8561C32.2978 35.6641 33.3358 37.1361 34.1408 36.9471C34.9468 36.7571 35.2178 34.9761 35.0288 34.1701C34.8398 33.3621 34.0308 32.8631 33.2248 33.0531C32.4198 33.2431 31.9188 34.0501 32.1088 34.8561ZM26.6748 35.5051C26.6778 36.3351 27.3558 38.0031 28.1838 38.0001C29.0118 37.9961 29.6778 36.3231 29.6748 35.4941C29.6718 34.6651 28.9978 33.9971 28.1698 33.9991C27.3418 34.0031 26.6718 34.6761 26.6748 35.5051ZM21.4038 33.0591C21.0778 33.8231 21.0388 35.6221 21.7998 35.9491C22.5628 36.2731 23.8368 35.0021 24.1628 34.2391C24.4878 33.4771 24.1348 32.5961 23.3738 32.2691C22.6118 31.9441 21.7308 32.2961 21.4038 33.0591ZM16.3728 22.0191C15.5608 22.1911 14.0648 23.1921 14.2338 24.0021C14.4068 24.8121 16.1788 25.1261 16.9908 24.9551C17.8018 24.7841 18.3198 23.9881 18.1508 23.1781C17.9788 22.3681 17.1858 21.8481 16.3728 22.0191ZM14.3358 17.0191C13.5238 17.1911 12.0278 18.1921 12.1968 19.0021C12.3698 19.8121 14.1418 20.1261 14.9538 19.9551C15.7648 19.7841 16.2828 18.9881 16.1138 18.1781C15.9418 17.3681 15.1478 16.8481 14.3358 17.0191Z" fill="#744EAA"/>
<path d="M29.7458 36C32.5768 36 34.6718 35.123 35.0118 34.973C37.2828 33.963 38.3048 31.304 37.2958 29.034C36.2968 26.784 33.6798 25.759 31.4238 26.72C31.2908 26.77 29.6308 27.369 28.0808 26.648C26.2298 25.787 25.0858 23.339 24.4528 21.439C24.3088 21.009 24.0678 20.165 23.7668 19.123C21.9008 12.652 20.9348 10.838 19.7838 9.30299C16.0728 4.35199 10.1918 4.00699 7.3008 4.58699C4.8638 5.07399 3.2828 7.44499 3.7708 9.88199C4.2588 12.32 6.6308 13.902 9.0668 13.412C9.2288 13.386 11.2708 13.106 12.4908 14.581C13.1338 15.868 14.5708 19.709 15.1208 21.615C15.4668 22.814 15.7498 23.786 15.9148 24.282C17.6878 29.599 20.5808 33.175 24.5178 34.911C26.3698 35.729 28.1718 36 29.7458 36Z" fill="#9266CC"/>
<path d="M9.18359 8C9.73588 8 10.1836 7.55228 10.1836 7C10.1836 6.44772 9.73588 6 9.18359 6C8.63131 6 8.18359 6.44772 8.18359 7C8.18359 7.55228 8.63131 8 9.18359 8Z" fill="#202024"/>
<path d="M33.4246 34.9641C33.3356 34.9641 33.2446 34.9521 33.1556 34.9281C32.6236 34.7801 32.3116 34.2291 32.4596 33.6971C33.2166 30.9751 31.6896 29.1551 31.6746 29.1371C31.3156 28.7181 31.3626 28.0861 31.7816 27.7271C32.1996 27.3681 32.8326 27.4151 33.1916 27.8341C33.2836 27.9411 35.4256 30.4941 34.3866 34.2311C34.2646 34.6741 33.8616 34.9641 33.4246 34.9641ZM26.2256 34.4011C25.9806 34.4011 25.7356 34.3121 25.5416 34.1311C25.1386 33.7531 25.1176 33.1201 25.4946 32.7171C26.9796 31.1301 26.9476 28.5241 26.9466 28.4971C26.9306 27.9451 27.3656 27.4851 27.9186 27.4691C28.4606 27.4641 28.9316 27.8881 28.9466 28.4411C28.9506 28.5801 29.0196 31.8781 26.9556 34.0851C26.7586 34.2951 26.4916 34.4011 26.2256 34.4011ZM17.6836 25.7051C17.2036 25.7051 16.7796 25.3581 16.6986 24.8681C16.6086 24.3241 16.9766 23.8081 17.5216 23.7191C20.5956 23.2091 22.2956 21.3421 22.3126 21.3231C22.6776 20.9131 23.3106 20.8741 23.7216 21.2391C24.1336 21.6041 24.1746 22.2321 23.8126 22.6451C23.7256 22.7441 21.6566 25.0601 17.8486 25.6911C17.7926 25.7011 17.7376 25.7051 17.6836 25.7051ZM20.6046 30.5621C20.1796 30.5621 19.7856 30.2901 19.6506 29.8641C19.4846 29.3381 19.7766 28.7751 20.3026 28.6091C22.9956 27.7561 24.1826 25.7791 24.1946 25.7591C24.4746 25.2821 25.0866 25.1221 25.5626 25.4021C26.0396 25.6811 26.1986 26.2951 25.9196 26.7701C25.8566 26.8781 24.3246 29.4331 20.9066 30.5141C20.8056 30.5471 20.7036 30.5621 20.6046 30.5621ZM15.9856 19.8921C15.4896 19.8921 15.0586 19.5231 14.9946 19.0171C14.9256 18.4691 15.3136 17.9691 15.8616 17.8991C18.5506 17.5591 20.5186 15.9281 20.5376 15.9111C20.9596 15.5571 21.5906 15.6081 21.9456 16.0301C22.3016 16.4511 22.2506 17.0801 21.8306 17.4371C21.7336 17.5201 19.4106 19.4661 16.1126 19.8831C16.0696 19.8891 16.0276 19.8921 15.9856 19.8921ZM14.1646 15.1251C13.7396 15.1251 13.3456 14.8521 13.2106 14.4241C13.0456 13.8971 13.3376 13.3361 13.8646 13.1701C16.9946 12.1871 18.1176 10.4781 18.1636 10.4061C18.4586 9.9441 19.0746 9.8011 19.5386 10.0941C20.0036 10.3861 20.1496 10.9931 19.8626 11.4601C19.8026 11.5571 18.3566 13.8561 14.4636 15.0791C14.3646 15.1101 14.2636 15.1251 14.1646 15.1251Z" fill="#744EAA"/>
</svg>
