<svg width="40" height="40" viewBox="0 0 40 40" fill="none" xmlns="http://www.w3.org/2000/svg">
<path d="M31 13.92C31 20.359 26 21.359 26 27.36C26 30.458 22.877 30.719 20.5 30.719C18.447 30.719 13.914 29.94 13.914 27.358C13.914 21.36 9 20.36 9 13.92C9 7.889 14.285 3 20.083 3C25.883 3 31 7.889 31 13.92Z" fill="#FFD983"/>
<path d="M24.167 35.36C24.167 36.188 21.933 37.86 20 37.86C18.067 37.86 15.833 36.188 15.833 35.36C15.833 34.532 18.066 34.86 20 34.86C21.933 34.86 24.167 34.532 24.167 35.36Z" fill="#CCD6DD"/>
<path d="M24.707 13.1531C24.316 12.7621 23.684 12.7621 23.293 13.1531L20 16.4461L16.707 13.1531C16.316 12.7621 15.684 12.7621 15.293 13.1531C14.902 13.5441 14.902 14.1761 15.293 14.5671L19 18.2741V28.8601C19 29.4131 19.448 29.8601 20 29.8601C20.552 29.8601 21 29.4131 21 28.8601V18.2741L24.707 14.5671C25.098 14.1761 25.098 13.5441 24.707 13.1531Z" fill="#FFCC4D"/>
<path d="M26 33.8601C26 34.9641 25.104 35.8601 24 35.8601H16C14.896 35.8601 14 34.9641 14 33.8601V27.8601H26V33.8601Z" fill="#99AAB5"/>
<path d="M13.9991 34.86C13.5191 34.86 13.0951 34.513 13.0141 34.024C12.9231 33.48 13.2911 32.964 13.8361 32.874L25.8361 30.874C26.3801 30.776 26.8961 31.151 26.9861 31.696C27.0771 32.24 26.7091 32.756 26.1641 32.846L14.1641 34.846C14.1091 34.856 14.0531 34.86 13.9991 34.86ZM13.9991 30.86C13.5191 30.86 13.0951 30.513 13.0141 30.024C12.9231 29.48 13.2911 28.964 13.8361 28.874L25.8361 26.874C26.3801 26.777 26.8961 27.151 26.9861 27.696C27.0771 28.24 26.7091 28.756 26.1641 28.846L14.1641 30.846C14.1091 30.856 14.0531 30.86 13.9991 30.86Z" fill="#CCD6DD"/>
</svg>
