<svg width="37" height="36" viewBox="0 0 37 36" fill="none" xmlns="http://www.w3.org/2000/svg">
<path d="M36.5 32C36.5 34.209 34.709 36 32.5 36H4.5C2.291 36 0.5 34.209 0.5 32V4C0.5 1.791 2.291 0 4.5 0H32.5C34.709 0 36.5 1.791 36.5 4V32Z" fill="#77B255"/>
<path d="M29.78 6.3619C28.624 5.6109 27.076 5.9399 26.322 7.0979L15.436 23.8769L10.407 19.2269C9.39303 18.2889 7.81103 18.3519 6.87403 19.3649C5.93703 20.3789 5.99903 21.9609 7.01303 22.8979L14.222 29.5639C14.702 30.0089 15.312 30.2289 15.918 30.2289C16.591 30.2289 17.452 29.9469 18.017 29.0899C18.349 28.5839 30.517 9.8199 30.517 9.8199C31.268 8.6609 30.938 7.1129 29.78 6.3619Z" fill="white"/>
</svg>
